<svg width="614" height="754" viewBox="0 0 614 754" fill="none" xmlns="http://www.w3.org/2000/svg">
<g clip-path="url(#clip0_33_8)">
<path d="M594.464 257.039C590.089 260.432 512.848 303.937 512.848 400.676C512.848 512.569 611.134 552.154 614.075 553.134C613.623 555.547 598.461 607.347 562.255 660.127C529.971 706.573 496.254 752.944 444.961 752.944C393.669 752.944 380.469 723.161 321.256 723.161C263.552 723.161 243.035 753.925 196.118 753.925C149.2 753.925 116.464 710.947 78.8243 658.167C35.2258 596.188 0 499.902 0 408.517C0 261.94 95.3435 184.202 189.178 184.202C239.038 184.202 280.6 216.926 311.903 216.926C341.698 216.926 388.163 182.242 444.886 182.242C466.384 182.242 543.624 184.202 594.464 257.039ZM417.957 120.188C441.416 92.365 458.011 53.7602 458.011 15.1554C458.011 9.802 457.558 4.3732 456.578 0C418.41 1.4326 373.001 25.4098 345.62 57.1532C324.123 81.5828 304.058 120.188 304.058 159.32C304.058 165.201 305.039 171.083 305.491 172.968C307.905 173.42 311.828 173.948 315.75 173.948C349.995 173.948 393.066 151.026 417.957 120.188Z" fill="white"/>
</g>
<defs>
<clipPath id="clip0_33_8">
<rect width="614" height="754" fill="white"/>
</clipPath>
</defs>
</svg>
