<svg width="604" height="602" viewBox="0 0 604 602" fill="none" xmlns="http://www.w3.org/2000/svg">
<g clip-path="url(#clip0_33_15)">
<path d="M302 0C220.045 0 209.739 0.37625 177.538 1.806C145.338 3.311 123.405 8.35275 104.19 15.8025C84.0256 23.3397 65.7658 35.1944 50.6983 50.5304C35.3113 65.5481 23.4173 83.7474 15.855 103.845C8.3805 122.959 3.28425 144.856 1.812 176.837C0.3775 209.007 0 219.241 0 301.038C0 382.759 0.3775 392.993 1.812 425.087C3.322 457.144 8.3805 479.004 15.855 498.155C23.5937 517.946 33.8995 534.726 50.6983 551.47C67.4593 568.213 84.2958 578.522 104.152 586.197C123.405 593.647 145.3 598.727 177.463 600.194C209.701 601.624 219.969 602 302 602C384.031 602 394.261 601.624 426.5 600.194C458.625 598.689 480.633 593.647 499.848 586.197C519.999 578.655 538.245 566.801 553.302 551.47C570.1 534.726 580.406 517.946 588.145 498.155C595.582 479.004 600.678 457.144 602.188 425.087C603.622 392.993 604 382.759 604 301C604 219.241 603.622 209.007 602.188 176.875C600.678 144.856 595.582 122.959 588.145 103.845C580.583 83.7474 568.689 65.5481 553.302 50.5304C538.234 35.1944 519.974 23.3397 499.81 15.8025C480.557 8.35275 458.587 3.27338 426.462 1.806C394.223 0.37625 383.993 0 301.925 0H302ZM274.933 54.2553H302.038C382.672 54.2553 392.222 54.5186 424.046 55.986C453.491 57.3029 469.497 62.2318 480.142 66.3329C494.223 71.7885 504.302 78.3352 514.872 88.8702C525.442 99.4052 531.973 109.414 537.447 123.485C541.599 134.058 546.507 150.011 547.828 179.358C549.3 211.076 549.602 220.595 549.602 300.925C549.602 381.254 549.3 390.811 547.828 422.529C546.507 451.876 541.562 467.792 537.447 478.402C532.571 491.454 524.847 503.264 514.834 512.979C504.264 523.514 494.223 530.023 480.105 535.479C469.535 539.618 453.528 544.509 424.046 545.864C392.222 547.293 382.672 547.632 302.038 547.632C221.404 547.632 211.815 547.293 179.992 545.864C150.547 544.509 134.579 539.618 123.933 535.479C110.828 530.635 98.9653 522.95 89.2032 512.979C79.1721 503.257 71.4354 491.433 66.5533 478.364C62.4385 467.792 57.4933 451.839 56.172 422.491C54.7375 390.773 54.4355 381.254 54.4355 300.849C54.4355 220.445 54.7375 211.001 56.172 179.283C57.531 149.936 62.4385 133.983 66.591 123.372C72.0648 109.338 78.6332 99.2924 89.2032 88.7574C99.7732 78.2224 109.815 71.7133 123.933 66.2576C134.579 62.1189 150.547 57.2276 179.992 55.8731C207.852 54.5939 218.648 54.2176 274.933 54.18V54.2553ZM463.23 104.221C458.471 104.221 453.759 105.156 449.362 106.971C444.965 108.786 440.97 111.447 437.605 114.801C434.24 118.155 431.57 122.136 429.749 126.519C427.928 130.901 426.99 135.598 426.99 140.341C426.99 145.085 427.928 149.781 429.749 154.164C431.57 158.546 434.24 162.528 437.605 165.882C440.97 169.236 444.965 171.897 449.362 173.712C453.759 175.527 458.471 176.461 463.23 176.461C472.842 176.461 482.059 172.656 488.856 165.882C495.652 159.108 499.47 149.921 499.47 140.341C499.47 130.762 495.652 121.574 488.856 114.801C482.059 108.027 472.842 104.221 463.23 104.221ZM302.038 146.436C281.467 146.117 261.037 149.879 241.939 157.504C222.841 165.128 205.455 176.464 190.794 190.85C176.133 205.236 164.49 222.385 156.543 241.299C148.596 260.213 144.503 280.513 144.503 301.019C144.503 321.524 148.596 341.825 156.543 360.739C164.49 379.653 176.133 396.802 190.794 411.188C205.455 425.574 222.841 436.909 241.939 444.534C261.037 452.159 281.467 455.921 302.038 455.601C342.753 454.968 381.585 438.403 410.153 409.482C438.721 380.561 454.733 341.604 454.733 301.019C454.733 260.434 438.721 221.476 410.153 192.555C381.585 163.634 342.753 147.07 302.038 146.436ZM302.038 200.654C315.259 200.654 328.351 203.25 340.566 208.292C352.781 213.335 363.88 220.727 373.229 230.045C382.578 239.363 389.994 250.425 395.053 262.599C400.113 274.774 402.717 287.822 402.717 301C402.717 314.178 400.113 327.226 395.053 339.401C389.994 351.575 382.578 362.637 373.229 371.955C363.88 381.273 352.781 388.665 340.566 393.707C328.351 398.75 315.259 401.346 302.038 401.346C275.336 401.346 249.728 390.774 230.847 371.955C211.966 353.137 201.359 327.613 201.359 301C201.359 274.387 211.966 248.863 230.847 230.045C249.728 211.226 275.336 200.654 302.038 200.654Z" fill="white"/>
</g>
<defs>
<clipPath id="clip0_33_15">
<rect width="604" height="602" fill="white"/>
</clipPath>
</defs>
</svg>
