<svg width="1024" height="598" viewBox="0 0 1024 598" fill="none" xmlns="http://www.w3.org/2000/svg">
<path d="M28.3801 273.978C26.3153 273.978 24.6763 275.574 24.4102 277.852L17.1729 332.824L24.4102 386.849C24.6763 389.126 26.3153 390.712 28.3801 390.712C30.381 390.712 32.0094 389.137 32.3287 386.87L40.9071 332.824L32.3287 277.841C32.02 275.574 30.3704 273.978 28.3801 273.978ZM69.0795 243.943C68.7389 241.58 67.0467 239.952 64.9606 239.952C62.8639 239.952 61.1291 241.633 60.8417 243.943C60.8417 243.964 51.1139 332.824 51.1139 332.824L60.8417 419.736C61.1184 422.067 62.8533 423.748 64.9606 423.748C67.036 423.748 68.7283 422.109 69.0689 419.757L80.1377 332.824L69.0795 243.943ZM222.383 161.959C218.392 161.959 215.093 165.226 214.901 169.377L207.153 332.898L214.901 438.574C215.104 442.704 218.392 445.961 222.383 445.961C226.353 445.961 229.642 442.693 229.876 438.553V438.585L238.636 332.898L229.876 169.377C229.642 165.226 226.353 161.959 222.383 161.959ZM143.039 218.793C139.974 218.793 137.472 221.241 137.228 224.509L128.5 332.856L137.228 437.68C137.462 440.926 139.974 443.374 143.039 443.374C146.072 443.374 148.573 440.926 148.839 437.68L158.759 332.856L148.839 224.487C148.573 221.241 146.072 218.793 143.039 218.793ZM303.016 445.95C307.965 445.95 311.988 441.959 312.19 436.85L319.79 332.952L312.201 115.246C311.999 110.137 307.976 106.146 303.027 106.146C298.035 106.146 294.001 110.148 293.842 115.257C293.842 115.267 287.104 332.941 287.104 332.941L293.842 436.882C294.001 441.948 298.035 445.95 303.016 445.95ZM468.091 446.44C474.903 446.44 480.522 440.831 480.65 433.934L485.95 333.016L480.65 81.5817C480.533 74.6956 474.903 69.076 468.091 69.076C461.269 69.076 455.639 74.685 455.532 81.5924L450.796 332.93C450.796 333.09 455.532 433.998 455.532 433.998C455.639 440.831 461.28 446.44 468.091 446.44ZM384.926 446.046C390.854 446.046 395.633 441.288 395.792 435.222V435.296L402.242 332.973L395.782 113.692C395.622 107.626 390.843 102.879 384.915 102.879C378.944 102.879 374.165 107.626 374.038 113.692L368.301 332.984L374.048 435.286C374.176 441.288 378.955 446.046 384.926 446.046ZM182.557 445.088C186.08 445.088 188.932 442.268 189.198 438.553L198.543 332.856L189.198 232.31C188.943 228.596 186.09 225.796 182.557 225.796C178.981 225.796 176.128 228.617 175.905 232.353L167.678 332.856L175.905 438.542C176.139 442.267 178.981 445.088 182.557 445.088ZM103.84 439.298C106.416 439.298 108.502 437.265 108.8 434.455L119.294 332.835L108.81 227.382C108.502 224.562 106.416 222.529 103.84 222.529C101.232 222.529 99.1464 224.572 98.8803 227.382C98.8803 227.393 89.6421 332.835 89.6421 332.835L98.8803 434.434C99.1358 437.255 101.222 439.298 103.84 439.298ZM426.349 110.041C419.91 110.041 414.748 115.161 414.62 121.717L409.384 332.994L414.62 434.658C414.748 441.129 419.899 446.248 426.349 446.248C432.777 446.248 437.907 441.139 438.056 434.583V434.668L443.931 333.005L438.056 121.696C437.907 115.161 432.777 110.041 426.349 110.041ZM262.551 446.163C267 446.163 270.671 442.534 270.884 437.904L279.058 332.93L270.884 132.009C270.661 127.369 267 123.75 262.551 123.75C258.059 123.75 254.398 127.379 254.206 132.009C254.206 132.02 246.969 332.93 246.969 332.93L254.217 437.946C254.398 442.534 258.059 446.163 262.551 446.163ZM353.826 436.201L360.851 332.962L353.826 107.924C353.656 102.336 349.25 97.9509 343.811 97.9509C338.341 97.9509 333.934 102.325 333.785 107.924L327.548 332.952L333.796 436.243C333.945 441.778 338.351 446.152 343.811 446.152C349.26 446.152 353.645 441.767 353.826 436.201ZM885.111 203.244C868.433 203.244 852.522 206.617 838.026 212.695C828.341 102.985 736.341 16.9246 624.12 16.9246C596.661 16.9246 569.893 22.3313 546.255 31.4737C537.07 35.0286 534.622 38.6898 534.536 45.7888V432.135C534.632 439.585 540.412 445.79 547.681 446.525C547.989 446.557 882.929 446.727 885.101 446.727C952.323 446.727 1006.83 392.223 1006.83 324.991C1006.83 257.758 952.333 203.244 885.111 203.244ZM509.653 45.4482C502.341 45.4482 496.338 51.4509 496.232 58.8267L490.74 333.047L496.242 432.572C496.338 439.841 502.341 445.833 509.653 445.833C516.943 445.833 522.946 439.841 523.053 432.465V432.582L529.023 333.047L523.053 58.8054C522.946 51.4509 516.943 45.4482 509.653 45.4482ZM115.473 524.113C101.073 520.729 97.1774 518.919 97.1774 513.215C97.1774 509.192 100.424 505.03 110.151 505.03C118.464 505.03 124.956 508.404 130.789 514.375L143.89 501.667C135.322 492.716 124.945 487.394 110.811 487.394C92.8882 487.394 78.3603 497.516 78.3603 514.002C78.3603 531.904 90.0465 537.226 106.778 541.11C123.902 544.995 127.021 547.603 127.021 553.446C127.021 560.321 121.944 563.312 111.194 563.312C102.499 563.312 94.3251 560.332 87.9605 552.914L74.8587 564.6C81.7342 574.722 94.9849 581.075 110.151 581.075C134.95 581.075 145.849 569.4 145.849 552.147C145.849 532.415 129.884 527.487 115.473 524.113ZM199.064 487.394C174.287 487.394 159.631 506.595 159.631 534.235C159.631 561.875 174.287 581.065 199.064 581.065C223.842 581.065 238.518 561.875 238.518 534.235C238.518 506.595 223.842 487.394 199.064 487.394ZM199.064 563.046C184.409 563.046 178.3 550.455 178.3 534.246C178.3 518.025 184.409 505.435 199.064 505.435C213.741 505.435 219.829 518.025 219.829 534.246C219.829 550.455 213.741 563.046 199.064 563.046ZM311.839 539.823C311.839 554.351 304.687 563.312 293.15 563.312C281.602 563.312 274.599 554.095 274.599 539.567V488.81H256.42V539.823C256.42 566.282 271.225 581.075 293.15 581.075C316.245 581.075 330.007 565.888 330.007 539.567V488.81H311.839V539.823ZM408.373 527.232C408.373 532.298 408.628 543.707 408.628 547.081C407.457 544.74 404.477 540.206 402.274 536.821L370.079 488.799H352.698V579.649H370.611V539.674C370.611 534.607 370.355 523.198 370.355 519.824C371.515 522.155 374.517 526.7 376.709 530.084L410.065 579.649H426.285V488.799H408.373V527.232ZM478.053 488.81H449.636V579.66H476.744C500.106 579.66 523.212 566.154 523.212 534.235C523.212 501.007 504.001 488.81 478.053 488.81ZM476.744 562.014H467.804V506.467H477.404C496.615 506.467 504.533 515.673 504.533 534.235C504.533 550.849 495.827 562.014 476.744 562.014ZM579.397 505.424C587.571 505.424 592.765 509.064 596.011 515.29L612.881 507.51C607.165 495.707 596.778 487.394 579.653 487.394C555.929 487.394 539.305 506.595 539.305 534.235C539.305 562.908 555.259 581.065 579.004 581.065C595.49 581.065 606.388 573.412 612.615 560.566L597.31 551.477C592.51 559.534 587.699 563.035 579.525 563.035C565.902 563.035 557.983 550.572 557.983 534.235C557.973 517.376 565.785 505.424 579.397 505.424ZM646.779 488.81H628.611V579.66H683.211V561.737H646.779V488.81ZM731.073 487.394C706.274 487.394 691.619 506.595 691.619 534.235C691.619 561.875 706.274 581.065 731.073 581.065C755.85 581.065 770.516 561.875 770.516 534.235C770.516 506.595 755.85 487.394 731.073 487.394ZM731.073 563.046C716.396 563.046 710.308 550.455 710.308 534.246C710.308 518.025 716.396 505.435 731.073 505.435C745.718 505.435 751.816 518.025 751.816 534.246C751.816 550.455 745.718 563.046 731.073 563.046ZM843.826 539.823C843.826 554.351 836.706 563.312 825.158 563.312C813.589 563.312 806.597 554.095 806.597 539.567V488.81H788.429V539.823C788.429 566.282 803.223 581.075 825.158 581.075C848.254 581.075 862.005 565.888 862.005 539.567V488.81H843.826V539.823ZM913.124 488.81H884.717V579.66H911.826C935.198 579.66 958.283 566.154 958.283 534.235C958.283 501.007 939.083 488.81 913.124 488.81ZM911.826 562.014H902.875V506.467H912.485C931.675 506.467 939.594 515.673 939.594 534.235C939.594 550.849 930.898 562.014 911.826 562.014Z" fill="white"/>
</svg>
