<svg width="1023" height="461" viewBox="0 0 1023 461" fill="none" xmlns="http://www.w3.org/2000/svg">
<g clip-path="url(#clip0_32_23)">
<path d="M11.5849 267.652C9.45052 267.652 7.75625 269.304 7.48121 271.66L0 328.545L7.48121 384.449C7.75625 386.806 9.45052 388.447 11.5849 388.447C13.6532 388.447 15.3365 386.817 15.6665 384.471L24.534 328.545L15.6665 271.649C15.3475 269.304 13.6422 267.652 11.5849 267.652ZM53.6557 236.572C53.3036 234.127 51.5543 232.442 49.398 232.442C47.2306 232.442 45.4373 234.182 45.1403 236.572C45.1403 236.594 35.0847 328.545 35.0847 328.545L45.1403 418.481C45.4263 420.893 47.2196 422.633 49.398 422.633C51.5433 422.633 53.2926 420.937 53.6447 418.503L65.0865 328.545L53.6557 236.572ZM212.125 151.735C208 151.735 204.589 155.116 204.391 159.411L196.382 328.622L204.391 437.975C204.6 442.248 208 445.618 212.125 445.618C216.229 445.618 219.628 442.237 219.87 437.953V437.986L228.925 328.622L219.87 159.411C219.628 155.116 216.229 151.735 212.125 151.735ZM130.107 210.547C126.938 210.547 124.353 213.08 124.1 216.461L115.079 328.578L124.1 437.049C124.342 440.409 126.938 442.942 130.107 442.942C133.242 442.942 135.828 440.409 136.103 437.049L146.357 328.578L136.103 216.439C135.828 213.08 133.242 210.547 130.107 210.547ZM295.475 445.607C300.59 445.607 304.749 441.477 304.958 436.19L312.813 328.677L304.969 103.397C304.76 98.1105 300.602 93.9804 295.486 93.9804C290.326 93.9804 286.156 98.1215 285.991 103.408C285.991 103.419 279.027 328.666 279.027 328.666L285.991 436.223C286.156 441.466 290.326 445.607 295.475 445.607ZM466.112 446.113C473.153 446.113 478.962 440.309 479.094 433.173L484.573 328.743L479.094 68.5614C478.973 61.4357 473.153 55.6206 466.112 55.6206C459.06 55.6206 453.24 61.4247 453.13 68.5724L448.234 328.655C448.234 328.82 453.13 433.239 453.13 433.239C453.24 440.309 459.071 446.113 466.112 446.113ZM380.144 445.706C386.272 445.706 391.212 440.783 391.377 434.505V434.582L398.044 328.699L391.366 101.789C391.201 95.5113 386.261 90.5993 380.133 90.5993C373.961 90.5993 369.022 95.5113 368.889 101.789L362.96 328.71L368.9 434.571C369.033 440.783 373.972 445.706 380.144 445.706ZM170.957 444.715C174.598 444.715 177.547 441.796 177.822 437.953L187.481 328.578L177.822 224.534C177.558 220.69 174.609 217.794 170.957 217.794C167.26 217.794 164.311 220.712 164.08 224.578L155.576 328.578L164.08 437.941C164.322 441.796 167.26 444.715 170.957 444.715ZM89.5874 438.723C92.2499 438.723 94.4062 436.62 94.7143 433.712L105.562 328.556L94.7253 219.435C94.4062 216.516 92.2499 214.413 89.5874 214.413C86.892 214.413 84.7357 216.527 84.4606 219.435C84.4606 219.446 74.9111 328.556 74.9111 328.556L84.4606 433.69C84.7247 436.609 86.881 438.723 89.5874 438.723ZM422.963 98.0114C416.307 98.0114 410.971 103.309 410.839 110.093L405.426 328.721L410.839 433.922C410.971 440.618 416.296 445.915 422.963 445.915C429.608 445.915 434.911 440.629 435.065 433.845V433.933L441.138 328.732L435.065 110.071C434.911 103.309 429.608 98.0114 422.963 98.0114ZM253.646 445.827C258.245 445.827 262.04 442.072 262.26 437.281L270.71 328.655L262.26 120.743C262.029 115.941 258.245 112.197 253.646 112.197C249.003 112.197 245.219 115.952 245.021 120.743C245.021 120.754 237.539 328.655 237.539 328.655L245.032 437.325C245.219 442.072 249.003 445.827 253.646 445.827ZM347.997 435.519L355.258 328.688L347.997 95.8197C347.821 90.0376 343.266 85.5001 337.644 85.5001C331.99 85.5001 327.435 90.0266 327.281 95.8197L320.834 328.677L327.292 435.563C327.446 441.29 332.001 445.816 337.644 445.816C343.277 445.816 347.81 441.279 347.997 435.519ZM897.184 194.456C879.944 194.456 863.496 197.947 848.512 204.236C838.5 90.7094 743.401 1.65469 627.398 1.65469C599.014 1.65469 571.344 7.24952 546.909 16.7101C537.415 20.3886 534.884 24.1772 534.796 31.5232V431.311C534.895 439.021 540.869 445.442 548.383 446.202C548.703 446.235 894.928 446.411 897.173 446.411C966.66 446.411 1023 390.011 1023 320.439C1023 250.867 966.671 194.456 897.184 194.456ZM509.074 31.1707C501.516 31.1707 495.311 37.3823 495.201 45.0146L489.524 328.776L495.212 431.763C495.311 439.285 501.516 445.486 509.074 445.486C516.61 445.486 522.815 439.285 522.925 431.653V431.774L529.097 328.776L522.925 44.9926C522.815 37.3823 516.61 31.1707 509.074 31.1707ZM101.612 526.49C86.727 522.987 82.7003 521.115 82.7003 515.212C82.7003 511.049 86.0559 506.743 96.1115 506.743C104.704 506.743 111.415 510.234 117.444 516.412L130.987 503.262C122.131 494 111.404 488.493 96.7936 488.493C78.2666 488.493 63.2492 498.967 63.2492 516.027C63.2492 534.551 75.3291 540.058 92.6239 544.078C110.326 548.098 113.549 550.796 113.549 556.843C113.549 563.957 108.301 567.052 97.1897 567.052C88.2012 567.052 79.7519 563.968 73.1728 556.292L59.6296 568.385C66.7368 578.859 80.434 585.434 96.1115 585.434C121.746 585.434 133.011 573.352 133.011 555.499C133.011 535.08 116.509 529.981 101.612 526.49ZM188.02 488.493C162.408 488.493 147.259 508.361 147.259 536.963C147.259 565.565 162.408 585.423 188.02 585.423C213.632 585.423 228.804 565.565 228.804 536.963C228.804 508.361 213.632 488.493 188.02 488.493ZM188.02 566.777C172.871 566.777 166.556 553.748 166.556 536.974C166.556 520.19 172.871 507.161 188.02 507.161C203.192 507.161 209.485 520.19 209.485 536.974C209.485 553.748 203.192 566.777 188.02 566.777ZM304.595 542.746C304.595 557.779 297.202 567.052 285.276 567.052C273.339 567.052 266.1 557.515 266.1 542.481V489.958H247.309V542.746C247.309 570.125 262.612 585.434 285.276 585.434C309.15 585.434 323.375 569.717 323.375 542.481V489.958H304.595V542.746ZM404.381 529.717C404.381 534.959 404.645 546.765 404.645 550.257C403.435 547.834 400.355 543.142 398.077 539.64L364.797 489.947H346.831V583.958H365.347V542.591C365.347 537.349 365.083 525.542 365.083 522.051C366.282 524.463 369.385 529.166 371.651 532.668L406.131 583.958H422.897V489.947H404.381V529.717ZM476.41 489.958H447.035V583.969H475.057C499.206 583.969 523.09 569.993 523.09 536.963C523.09 502.579 503.232 489.958 476.41 489.958ZM475.057 565.709H465.815V508.229H475.739C495.597 508.229 503.782 517.756 503.782 536.963C503.782 554.155 494.783 565.709 475.057 565.709ZM581.169 507.15C589.618 507.15 594.987 510.917 598.343 517.359L615.78 509.309C609.872 497.095 599.135 488.493 581.433 488.493C556.91 488.493 539.725 508.361 539.725 536.963C539.725 566.634 556.217 585.423 580.762 585.423C597.803 585.423 609.069 577.504 615.505 564.211L599.685 554.805C594.723 563.142 589.75 566.766 581.301 566.766C567.219 566.766 559.033 553.869 559.033 536.963C559.022 519.518 567.098 507.15 581.169 507.15ZM650.821 489.958H632.041V583.969H688.48V565.422H650.821V489.958ZM737.955 488.493C712.321 488.493 697.171 508.361 697.171 536.963C697.171 565.565 712.321 585.423 737.955 585.423C763.567 585.423 778.728 565.565 778.728 536.963C778.728 508.361 763.567 488.493 737.955 488.493ZM737.955 566.777C722.784 566.777 716.491 553.748 716.491 536.974C716.491 520.19 722.784 507.161 737.955 507.161C753.093 507.161 759.398 520.19 759.398 536.974C759.398 553.748 753.093 566.777 737.955 566.777ZM854.508 542.746C854.508 557.779 847.148 567.052 835.211 567.052C823.252 567.052 816.024 557.515 816.024 542.481V489.958H797.244V542.746C797.244 570.125 812.536 585.434 835.211 585.434C859.085 585.434 873.299 569.717 873.299 542.481V489.958H854.508V542.746ZM926.14 489.958H896.777V583.969H924.798C948.958 583.969 972.821 569.993 972.821 536.963C972.821 502.579 952.974 489.958 926.14 489.958ZM924.798 565.709H915.546V508.229H925.48C945.317 508.229 953.502 517.756 953.502 536.963C953.502 554.155 944.513 565.709 924.798 565.709Z" fill="white"/>
</g>
<defs>
<clipPath id="clip0_32_23">
<rect width="1023" height="461" fill="white"/>
</clipPath>
</defs>
</svg>
