<svg width="586" height="411" viewBox="0 0 586 411" fill="none" xmlns="http://www.w3.org/2000/svg">
<g clip-path="url(#clip0_33_10)">
<g clip-path="url(#clip1_33_10)">
<path d="M573.749 64.1826C566.997 38.9059 547.169 19.0421 521.94 12.2759C476.26 3.67463e-06 293 0 293 0C293 0 109.743 3.67463e-06 64.0607 12.2759C38.8321 19.0421 19.006 38.9059 12.2526 64.1826C3.66766e-06 109.951 0 205.5 0 205.5C0 205.5 3.66766e-06 301.049 12.2526 346.818C19.006 372.095 38.8321 391.958 64.0607 398.723C109.743 411 293 411 293 411C293 411 476.26 411 521.94 398.723C547.169 391.958 566.997 372.095 573.749 346.818C586.002 301.049 586.002 205.5 586.002 205.5C586.002 205.5 585.953 109.951 573.749 64.1826Z" fill="white"/>
<path d="M234.345 293.565L386.586 205.508L234.345 117.45V293.565Z" fill="black"/>
</g>
</g>
<defs>
<clipPath id="clip0_33_10">
<rect width="586" height="411" fill="white"/>
</clipPath>
<clipPath id="clip1_33_10">
<rect width="586" height="411" fill="white"/>
</clipPath>
</defs>
</svg>
